<?xml version="1.0" encoding="utf-8"?>
<!-- Generator: Adobe Illustrator 21.0.0, SVG Export Plug-In . SVG Version: 6.00 Build 0)  -->
<svg version="1.1" id="Layer_1" xmlns="http://www.w3.org/2000/svg" xmlns:xlink="http://www.w3.org/1999/xlink" x="0px" y="0px"
	 viewBox="0 0 141.7 120" style="enable-background:new 0 0 141.7 120;" xml:space="preserve">
<style type="text/css">
	.st0{fill:none;stroke:#0A649D;stroke-linecap:round;stroke-linejoin:round;stroke-miterlimit:10;}
	.st1{fill:#CEDDE6;}
	.st2{fill:#FFFFFF;}
	.st3{fill:#FFFFFF;stroke:#0A649D;stroke-linecap:round;stroke-linejoin:round;stroke-miterlimit:10;}
	.st4{fill:#CEDDE6;stroke:#0A649D;stroke-linecap:round;stroke-linejoin:round;stroke-miterlimit:10;}
	.st5{fill:#CEDDE6;stroke:#0A649D;stroke-linejoin:round;stroke-miterlimit:10;}
</style>
<g>
	<g>
		<line class="st0" x1="8.5" y1="87" x2="132.8" y2="87"/>
		<line class="st0" x1="1.3" y1="87" x2="5.3" y2="87"/>
		<line class="st0" x1="135.9" y1="87" x2="139.9" y2="87"/>
	</g>
</g>
<g>
	<path class="st1" d="M102.6,92.3h-63c-3.9,0-7-3.1-7-7v-41c0-3.9,3.1-7,7-7h63c3.9,0,7,3.1,7,7v41
		C109.6,89.2,106.4,92.3,102.6,92.3z"/>
	<path class="st2" d="M79.2,37.4H39.2c-3.6,0-6.6,3-6.6,6.6v39.9L79.2,37.4z"/>
	<path class="st0" d="M102.6,92.3h-63c-3.9,0-7-3.1-7-7v-41c0-3.9,3.1-7,7-7h63c3.9,0,7,3.1,7,7v41
		C109.6,89.2,106.4,92.3,102.6,92.3z"/>
	<path class="st3" d="M103,92.3c3.6,0,6.6-3,6.6-6.6v-2.2h-77v2.2c0,3.6,3,6.6,6.6,6.6H103z"/>
	<polygon class="st2" points="77.7,101.1 64.5,101.1 65.6,92.3 76.6,92.3 	"/>
	<polygon class="st0" points="77.7,101.1 64.5,101.1 65.6,92.3 76.6,92.3 	"/>
	<path class="st3" d="M85.4,105.5H56.8c0-2.4,2-4.4,4.4-4.4H81C83.4,101.1,85.4,103.1,85.4,105.5z"/>
	<path class="st3" d="M111.6,71.5h-59c-1.3,0-2.4-1.1-2.4-2.4V29.7H114v39.4C114,70.4,112.9,71.5,111.6,71.5z"/>
	<path class="st3" d="M114,29.7H50.2V18.9c0-1.3,1.1-2.4,2.4-2.4h59c1.3,0,2.4,1.1,2.4,2.4V29.7z"/>
	<circle class="st4" cx="56.8" cy="23.1" r="2.2"/>
	<circle class="st4" cx="65.6" cy="23.1" r="2.2"/>
	<circle class="st4" cx="74.4" cy="23.1" r="2.2"/>
	<path class="st4" d="M77.8,51.7H71c-0.6,0-1-0.4-1-1v-6.8c0-0.6,0.4-1,1-1h6.8c0.6,0,1,0.4,1,1v6.8C78.8,51.2,78.4,51.7,77.8,51.7z
		"/>
	<path class="st4" d="M92.1,51.7h-6.8c-0.6,0-1-0.4-1-1v-6.8c0-0.6,0.4-1,1-1h6.8c0.6,0,1,0.4,1,1v6.8
		C93.1,51.2,92.6,51.7,92.1,51.7z"/>
	<path class="st4" d="M102.4,51.7h-6.8c-0.6,0-1-0.4-1-1v-6.8c0-0.6,0.4-1,1-1h6.8c0.6,0,1,0.4,1,1v6.8
		C103.4,51.2,102.9,51.7,102.4,51.7z"/>
	<path class="st4" d="M77.8,64.9H71c-0.6,0-1-0.4-1-1v-6.8c0-0.6,0.4-1,1-1h6.8c0.6,0,1,0.4,1,1v6.8C78.8,64.4,78.4,64.9,77.8,64.9z
		"/>
	<path class="st4" d="M92.1,64.9h-6.8c-0.6,0-1-0.4-1-1v-6.8c0-0.6,0.4-1,1-1h6.8c0.6,0,1,0.4,1,1v6.8
		C93.1,64.4,92.6,64.9,92.1,64.9z"/>
	<path class="st4" d="M102.4,64.9h-6.8c-0.6,0-1-0.4-1-1v-6.8c0-0.6,0.4-1,1-1h6.8c0.6,0,1,0.4,1,1v6.8
		C103.4,64.4,102.9,64.9,102.4,64.9z"/>
	<path class="st4" d="M64.6,38.5h-6.8c-0.6,0-1-0.4-1-1v-2.4c0-0.6,0.4-1,1-1h6.8c0.6,0,1,0.4,1,1v2.4C65.6,38,65.2,38.5,64.6,38.5z
		"/>
	<path class="st5" d="M106.4,38.5H71c-0.6,0-1-0.4-1-1v-2.4c0-0.6,0.4-1,1-1h35.4c0.6,0,1,0.4,1,1v2.4
		C107.4,38,106.9,38.5,106.4,38.5z"/>
	<line class="st0" x1="56.8" y1="42.9" x2="65.6" y2="42.9"/>
	<line class="st0" x1="56.8" y1="47.3" x2="65.6" y2="47.3"/>
	<line class="st0" x1="56.8" y1="51.7" x2="65.6" y2="51.7"/>
	<line class="st0" x1="56.8" y1="56.1" x2="65.6" y2="56.1"/>
	<line class="st0" x1="56.8" y1="60.5" x2="65.6" y2="60.5"/>
	<line class="st0" x1="56.8" y1="64.9" x2="62.3" y2="64.9"/>
	<circle class="st0" cx="71.1" cy="87.9" r="0.9"/>
</g>
</svg>
