<?xml version="1.0" encoding="utf-8"?>
<!-- Generator: Adobe Illustrator 21.0.0, SVG Export Plug-In . SVG Version: 6.00 Build 0)  -->
<svg version="1.1" id="Layer_1" xmlns="http://www.w3.org/2000/svg" xmlns:xlink="http://www.w3.org/1999/xlink" x="0px" y="0px"
	 viewBox="0 0 153.3 120" style="enable-background:new 0 0 153.3 120;" xml:space="preserve">
<style type="text/css">
	.st0{fill:#E6EDF2;}
	.st1{fill:#CEDDE6;stroke:#0A649D;stroke-linecap:round;stroke-linejoin:round;stroke-miterlimit:10;}
	.st2{fill:#FFFFFF;stroke:#0A649D;stroke-linecap:round;stroke-linejoin:round;stroke-miterlimit:10;}
	.st3{fill:none;stroke:#0A649D;stroke-linecap:round;stroke-linejoin:round;stroke-miterlimit:10;}
	.st4{fill:#CEDDE6;}
	.st5{clip-path:url(#SVGID_2_);}
	.st6{fill:#FFFFFF;stroke:#0A649D;stroke-miterlimit:10;}
	.st7{fill:#FFFFFF;}
	.st8{fill:none;stroke:#0A649D;stroke-linejoin:round;stroke-miterlimit:10;}
</style>
<g>
	<g>
		<path class="st0" d="M104.4,101.4H50.1c-1.1,0-2-0.9-2-2V26.9c0-1.1,0.9-2,2-2h54.3c1.1,0,2,0.9,2,2v72.5
			C106.4,100.5,105.5,101.4,104.4,101.4z"/>
		<g>
			<path class="st1" d="M100.6,97.6H46.3c-1.1,0-2-0.9-2-2V23.1c0-1.1,0.9-2,2-2h54.3c1.1,0,2,0.9,2,2v72.5
				C102.6,96.7,101.7,97.6,100.6,97.6z"/>
			<path class="st2" d="M97.8,93.8H49.1c-0.6,0-1-0.4-1-1V25.9c0-0.6,0.4-1,1-1h48.7c0.6,0,1,0.4,1,1v66.8
				C98.8,93.3,98.3,93.8,97.8,93.8z"/>
			<g>
				<line class="st3" x1="42.4" y1="34.5" x2="50" y2="34.5"/>
				<line class="st3" x1="42.4" y1="38.3" x2="50" y2="38.3"/>
			</g>
			<g>
				<line class="st3" x1="42.4" y1="46" x2="50" y2="46"/>
				<line class="st3" x1="42.4" y1="49.8" x2="50" y2="49.8"/>
			</g>
			<g>
				<line class="st3" x1="42.4" y1="57.4" x2="50" y2="57.4"/>
				<line class="st3" x1="42.4" y1="61.2" x2="50" y2="61.2"/>
			</g>
			<g>
				<line class="st3" x1="42.4" y1="68.9" x2="50" y2="68.9"/>
				<line class="st3" x1="42.4" y1="72.7" x2="50" y2="72.7"/>
			</g>
			<g>
				<line class="st3" x1="42.4" y1="80.4" x2="50" y2="80.4"/>
				<line class="st3" x1="42.4" y1="84.2" x2="50" y2="84.2"/>
			</g>
		</g>
		<g>
			<line class="st3" x1="73" y1="33.5" x2="73" y2="56.5"/>
			<line class="st3" x1="55.7" y1="56.5" x2="90.2" y2="56.5"/>
			<line class="st3" x1="73" y1="46" x2="90.2" y2="46"/>
			<line class="st3" x1="80.6" y1="46" x2="80.6" y2="56.5"/>
		</g>
		<path class="st3" d="M81,75.6h-1.5c-11.4,0-20.9-9.2-20.9-20.6c0-9.7,8.2-17.6,17.9-17.6c5.3,0,9.6,4.3,9.6,9.6
			c0,4.7-3.8,8.6-8.6,8.6c-2.5,0-4.5-2-4.5-4.5c0-2.5,1.9-5,4.8-5c1.6,0,2.9,1.5,2.9,2.5c0,1.1-0.9,2.3-2,2.3H77"/>
	</g>
	<path class="st4" d="M35.7,50.3l2.7,8.2c0.3,1-0.2,2.1-1.2,2.4l-18.1,6c-1,0.3-2.1-0.2-2.4-1.2l-3.3-10c-0.3-1,0.2-2.1,1.2-2.4
		l16.3-5.4C32.9,47.2,35.1,48.3,35.7,50.3z"/>
	<path class="st2" d="M35.7,46.3l2.7,8.2c0.3,1-0.2,2.1-1.2,2.4l-18.1,6c-1,0.3-2.1-0.2-2.4-1.2l-3.3-10c-0.3-1,0.2-2.1,1.2-2.4
		l16.3-5.4C32.9,43.2,35.1,44.3,35.7,46.3z"/>
	<path class="st4" d="M27.3,45l4.5,13.6l-12.7,4.2c-1,0.3-2.1-0.2-2.4-1.2l-3.3-10c-0.3-1,0.2-2.1,1.2-2.4L27.3,45z"/>
	<path class="st3" d="M27.3,45l4.5,13.6l-12.7,4.2c-1,0.3-2.1-0.2-2.4-1.2l-3.3-10c-0.3-1,0.2-2.1,1.2-2.4L27.3,45z"/>
	<g>
		<defs>
			<circle id="SVGID_1_" cx="76.8" cy="47.9" r="76.5"/>
		</defs>
		<clipPath id="SVGID_2_">
			<use xlink:href="#SVGID_1_"  style="overflow:visible;"/>
		</clipPath>
		<g class="st5">
			<g>
				<path class="st6" d="M105.6,71.2c1.8,0.3,2.9,2,2.6,3.8l-2,10.3c-0.3,1.8-2,2.9-3.8,2.6c-1.8-0.3-2.9-2-2.6-3.8l2-10.3
					C102.2,72,103.9,70.8,105.6,71.2z"/>
				<path class="st6" d="M102.4,69.7c1.5,1,1.8,3.1,0.7,4.5l-4.8,6.9c-1,1.5-3.1,1.8-4.5,0.7c-1.5-1-1.8-3.1-0.7-4.5l4.8-6.9
					C99,69,101,68.7,102.4,69.7z"/>
				<path class="st7" d="M111.6,85.2c4.6,2.5,6.5,3.7,9.7,7.4l2.8,3.3l16-12.2l-2.9-3.1c-4.4-4.2-4-12.9-12.2-18.6
					c-10.3-7.3-24.1-7.7-38.2,5.6c-1.3,1.2-1.4,3.3-0.1,4.6c1.2,1.3,3.3,1.4,4.6,0.1c0.9-0.9,1.9-1.7,2.8-2.4c1.9-1.4,4-3,5.6-3.8
					c4.8-2.6,9.3-3.3,13.6-2.2c3.6,1,4.1,4.4,2.5,6.1c-1.8,2-5.8,2.8-9.2,0.5l-7-4.4v0C98.2,67,96,68.6,94.2,70l0,0
					c0.2,0.3,0.5,0.6,0.9,0.9C106.4,82.1,108.7,83.6,111.6,85.2z"/>
				<path class="st8" d="M115.9,70.1c-1.8,2-5.8,2.8-9.2,0.5l-7-4.4c4.8-2.6,9.3-3.3,13.6-2.2C117,65,117.4,68.4,115.9,70.1z"/>
				<path class="st3" d="M111.6,85.2c4.6,2.5,6.5,3.7,9.7,7.4l2.8,3.3l16-12.2l-2.9-3.1c-4.4-4.2-4-12.9-12.2-18.6
					c-10.3-7.3-24.1-7.7-38.2,5.6c-1.3,1.2-1.4,3.3-0.1,4.6c1.2,1.3,3.3,1.4,4.6,0.1c0.9-0.9,1.9-1.7,2.8-2.4c1.9-1.4,4-3,5.6-3.8
					c4.8-2.6,9.3-3.3,13.6-2.2c3.6,1,4.1,4.4,2.5,6.1c-1.8,2-5.8,2.8-9.2,0.5l-7-4.4v0C98.2,67,96,68.6,94.2,70l0,0
					c0.2,0.3,0.5,0.6,0.9,0.9C106.4,82.1,108.7,83.6,111.6,85.2z"/>
				<g>
					<polygon class="st7" points="93.8,77.6 91.1,70.3 128.3,56.3 131.1,63.5 					"/>
					<path class="st7" d="M91.1,70.3c-0.2,0-7.7,7.1-7.7,7.1l10.5,0.2L91.1,70.3z"/>
					<polygon class="st3" points="93.8,77.6 91.1,70.3 128.3,56.3 131.1,63.5 					"/>
					
						<rect x="127.6" y="57.3" transform="matrix(0.3579 0.9338 -0.9338 0.3579 139.761 -84.7921)" class="st4" width="7.8" height="3.9"/>
					
						<rect x="127.6" y="57.3" transform="matrix(0.3579 0.9338 -0.9338 0.3579 139.761 -84.7921)" class="st3" width="7.8" height="3.9"/>
					<path class="st7" d="M137.5,61.1c2-0.8,3-3,2.2-5c-0.8-2-3-3-5-2.2l-2.7,1l2.8,7.3L137.5,61.1z"/>
					<path class="st3" d="M137.5,61.1c2-0.8,3-3,2.2-5c-0.8-2-3-3-5-2.2l-2.7,1l2.8,7.3L137.5,61.1z"/>
					<line class="st3" x1="83.4" y1="77.4" x2="81.6" y2="78.1"/>
					<path class="st3" d="M91.1,70.3c-0.2,0-7.7,7.1-7.7,7.1l10.5,0.2L91.1,70.3z"/>
				</g>
			</g>
			<g>
				<path class="st4" d="M122.5,98.4l7.8,10.3c0.3,0.4,1,0.5,1.4,0.2l18.4-14c0.4-0.3,0.5-1,0.2-1.4l-7.8-10.3
					c-0.3-0.4-1-0.5-1.4-0.2l-18.4,14C122.3,97.4,122.2,98,122.5,98.4z"/>
				<path class="st8" d="M122.5,98.4l7.8,10.3c0.3,0.4,1,0.5,1.4,0.2l18.4-14c0.4-0.3,0.5-1,0.2-1.4l-7.8-10.3
					c-0.3-0.4-1-0.5-1.4-0.2l-18.4,14C122.3,97.4,122.2,98,122.5,98.4z"/>
				<path class="st2" d="M123.2,96.7l-2.3-3.1c-0.3-0.4-0.2-1.1,0.2-1.4l15.8-12c0.4-0.3,1.1-0.2,1.4,0.2l2.3,3.1L123.2,96.7z"/>
			</g>
			<g>
				<path class="st7" d="M115.9,70.1c-1.8,2-5.8,2.8-9.2,0.5l-8.2-5.2c-1.5-1-3.5-0.5-4.5,1c-1,1.5-0.5,3.5,1,4.5
					c11.3,11.2,13.7,12.8,16.6,14.4"/>
				<path class="st3" d="M115.9,70.1c-1.8,2-5.8,2.8-9.2,0.5l-8.2-5.2c-1.5-1-3.5-0.5-4.5,1c-1,1.5-0.5,3.5,1,4.5
					c11.3,11.2,13.7,12.8,16.6,14.4"/>
				<path class="st3" d="M115.9,70.1c-1.8,2-5.8,2.8-9.2,0.5l-8.2-5.2c-1.5-1-3.5-0.5-4.5,1c-1,1.5-0.5,3.5,1,4.5
					c11.3,11.2,13.7,12.8,16.6,14.4"/>
			</g>
		</g>
	</g>
</g>
</svg>
