<?xml version="1.0" encoding="utf-8"?>
<!-- Generator: Adobe Illustrator 21.0.0, SVG Export Plug-In . SVG Version: 6.00 Build 0)  -->
<svg version="1.1" id="Layer_1" xmlns="http://www.w3.org/2000/svg" xmlns:xlink="http://www.w3.org/1999/xlink" x="0px" y="0px"
	 viewBox="0 0 141.7 120" style="enable-background:new 0 0 141.7 120;" xml:space="preserve">
<style type="text/css">
	.st0{fill:#CEDDE6;}
	.st1{fill:#E6EDF2;}
	.st2{fill:#FFFFFF;stroke:#0A649D;stroke-linecap:round;stroke-linejoin:round;stroke-miterlimit:10;}
	.st3{fill:none;stroke:#0A649D;stroke-linecap:round;stroke-linejoin:round;stroke-miterlimit:10;}
	.st4{fill:#FFFFFF;}
	.st5{fill:none;stroke:#0A649D;stroke-linejoin:round;stroke-miterlimit:10;}
	.st6{fill:#CEDDE6;stroke:#0A649D;stroke-linejoin:round;stroke-miterlimit:10;}
	.st7{fill:#CEDDE6;stroke:#0A649D;stroke-linecap:round;stroke-linejoin:round;stroke-miterlimit:10;}
	.st8{fill:#085280;}
	.st9{clip-path:url(#SVGID_2_);}
	.st10{fill:#FFFFFF;stroke:#0A649D;stroke-miterlimit:10;}
</style>
<g>
	<circle class="st0" cx="42.4" cy="29.4" r="11.2"/>
	<path class="st0" d="M115.3,23.7l2.3,6.8c0.3,0.8-0.2,1.7-1,2l-15.1,5c-0.8,0.3-1.7-0.2-2-1l-2.8-8.3c-0.3-0.8,0.2-1.7,1-2
		l13.6-4.5C113,21.1,114.8,22,115.3,23.7z"/>
	<path class="st1" d="M101.8,42l-9.2-1.2v-6.6c0-0.9-0.8-1.6-1.8-1.6H43.4c-1,0-1.8,0.7-1.8,1.6v5.5l-9.6,1c-1,0.1-1.7,0.9-1.6,1.8
		l6.9,50.6c0.1,0.9,1,1.5,2,1.4l5.3-0.6c0.2,0.1,0.5,0.2,0.8,0.3l46.9,6c1,0.1,1.9-0.5,2-1.3l9-55.2C103.5,42.9,102.8,42.1,101.8,42
		z"/>
	<path class="st2" d="M89.8,97.2l-43-6.2c-0.5-0.1-0.9-0.6-0.8-1.1l8.1-56.4c0.1-0.5,0.6-0.9,1.1-0.8l43,6.2
		c0.5,0.1,0.9,0.6,0.8,1.1l-8.1,56.4C90.8,96.9,90.3,97.3,89.8,97.2z"/>
	<path class="st2" d="M82.1,86.5l-40.7,4.9c-0.5,0.1-1-0.3-1.1-0.9L34,38.8c-0.1-0.5,0.3-1,0.9-1.1l40.7-4.9c0.5-0.1,1,0.3,1.1,0.9
		L83,85.4C83.1,86,82.7,86.5,82.1,86.5z"/>
	<path class="st2" d="M88.4,88.4H45c-0.6,0-1-0.4-1-1v-57c0-0.6,0.4-1,1-1h43.4c0.6,0,1,0.4,1,1v57C89.4,87.9,89,88.4,88.4,88.4z"/>
	<g>
		<g>
			<path class="st2" d="M33.5,36.5c-0.9,0.9-2.4,0.9-3.4,0c-0.9-0.9-0.9-2.4,0-3.4l3.9-3.9l3.4,3.4L33.5,36.5z"/>
			<ellipse transform="matrix(0.7071 -0.7071 0.7071 0.7071 -5.1394 36.9158)" class="st2" cx="42" cy="24.7" rx="10.4" ry="10.4"/>
			<circle class="st0" cx="42" cy="24.7" r="7.2"/>
			<circle class="st3" cx="42" cy="24.7" r="7.2"/>
		</g>
	</g>
	<g>
		<path class="st4" d="M73.5,54.1c0-4-3.2-7.2-7.2-7.2c-4,0-7.2,3.2-7.2,7.2c0,1.8,0.6,3.4,1.7,4.6c1,1.1,1.5,2.6,1.5,4.1v0.8h8
			v-0.8c0-1.5,0.5-3,1.5-4.1C72.9,57.5,73.5,55.9,73.5,54.1z"/>
		<path class="st5" d="M73.5,54.1c0-4-3.2-7.2-7.2-7.2c-4,0-7.2,3.2-7.2,7.2c0,1.8,0.6,3.4,1.7,4.6c1,1.1,1.5,2.6,1.5,4.1v0.8h8
			v-0.8c0-1.5,0.5-3,1.5-4.1C72.9,57.5,73.5,55.9,73.5,54.1z"/>
		<path class="st6" d="M68.7,66.9h-4.8c-0.9,0-1.6-0.7-1.6-1.6v-1.6h8v1.6C70.3,66.2,69.6,66.9,68.7,66.9z"/>
		<path class="st6" d="M68.7,67.7c0,1.3-1.1,2.4-2.4,2.4c-1.3,0-2.4-1.1-2.4-2.4v-0.8h4.8V67.7z"/>
		<line class="st3" x1="66.3" y1="43.8" x2="66.3" y2="42.2"/>
		<line class="st3" x1="73.6" y1="46.8" x2="74.8" y2="45.7"/>
		<line class="st3" x1="76.7" y1="54.1" x2="78.3" y2="54.1"/>
		<line class="st3" x1="59" y1="46.8" x2="57.9" y2="45.7"/>
		<line class="st3" x1="56" y1="54.1" x2="54.4" y2="54.1"/>
	</g>
	<g>
		<g>
			<rect x="24.5" y="67" transform="matrix(0.3546 -0.935 0.935 0.3546 -38.9802 83.1954)" class="st0" width="32.5" height="5.7"/>
			<line class="st3" x1="33" y1="90.4" x2="31.6" y2="94"/>
			<rect x="24.5" y="67" transform="matrix(0.3546 -0.935 0.935 0.3546 -38.9802 83.1954)" class="st3" width="32.5" height="5.7"/>
			<polygon class="st7" points="33,90.4 37.7,86 32.3,84 			"/>
		</g>
		<g>
			<path class="st0" d="M25,80.1l15.5-21.8c2.6,1.8,6.2,1.2,8-1.4c1.8-2.6,1.2-6.2-1.4-8c-2.6-1.8-6.2-1.2-8,1.4L20.4,76.8L25,80.1z
				"/>
			<line class="st3" x1="19.4" y1="83.1" x2="17.2" y2="86.3"/>
			<path class="st3" d="M25,80.1l15.5-21.8c2.6,1.8,6.2,1.2,8-1.4c1.8-2.6,1.2-6.2-1.4-8c-2.6-1.8-6.2-1.2-8,1.4L20.4,76.8L25,80.1z
				"/>
			<polygon class="st7" points="19.4,83.1 25,80.1 20.4,76.8 			"/>
			<g>
				<g>
					<path class="st8" d="M43.9,53.6L43.9,53.6L43.9,53.6 M43.9,52c-0.5,0-1,0.2-1.3,0.7c-0.5,0.7-0.3,1.7,0.4,2.2
						c0.3,0.2,0.6,0.3,0.9,0.3c0.5,0,1-0.2,1.3-0.7c0.5-0.7,0.3-1.7-0.4-2.2C44.5,52.1,44.2,52,43.9,52L43.9,52z"/>
				</g>
			</g>
		</g>
	</g>
	<g>
		<defs>
			<circle id="SVGID_1_" cx="67.9" cy="58.1" r="63.7"/>
		</defs>
		<clipPath id="SVGID_2_">
			<use xlink:href="#SVGID_1_"  style="overflow:visible;"/>
		</clipPath>
		<g class="st9">
			<g>
				<path class="st10" d="M91.9,77.5c1.5,0.3,2.4,1.7,2.1,3.2l-1.6,8.6c-0.3,1.5-1.7,2.4-3.2,2.1c-1.5-0.3-2.4-1.7-2.1-3.2l1.6-8.6
					C89.1,78.2,90.5,77.3,91.9,77.5z"/>
				<path class="st10" d="M89.3,76.3c1.2,0.9,1.5,2.6,0.6,3.8l-4,5.8c-0.9,1.2-2.6,1.5-3.8,0.6c-1.2-0.9-1.5-2.6-0.6-3.8l4-5.8
					C86.4,75.7,88.1,75.5,89.3,76.3z"/>
				<path class="st4" d="M97,89.3c3.8,2.1,5.4,3.1,8.1,6.2l2.4,2.7L120.7,88l-2.4-2.6C114.7,82,115,74.8,108.2,70
					c-8.6-6.1-20.1-6.4-31.8,4.7c-1.1,1-1.1,2.7-0.1,3.8c1,1.1,2.7,1.1,3.8,0.1c0.8-0.7,1.5-1.4,2.3-2c1.5-1.2,3.3-2.5,4.7-3.2
					c4-2.2,7.8-2.8,11.3-1.8c3,0.8,3.4,3.6,2.1,5.1c-1.5,1.7-4.8,2.3-7.6,0.4l-5.8-3.7v0c-1.4,0.7-3.1,2-4.7,3.2l0,0
					c0.2,0.3,0.4,0.5,0.8,0.7C92.6,86.6,94.5,87.9,97,89.3z"/>
				<path class="st5" d="M100.5,76.6c-1.5,1.7-4.8,2.3-7.6,0.4l-5.8-3.7c4-2.2,7.8-2.8,11.3-1.8C101.5,72.4,101.8,75.2,100.5,76.6z"
					/>
				<path class="st3" d="M97,89.3c3.8,2.1,5.4,3.1,8.1,6.2l2.4,2.7L120.7,88l-2.4-2.6C114.7,82,115,74.8,108.2,70
					c-8.6-6.1-20.1-6.4-31.8,4.7c-1.1,1-1.1,2.7-0.1,3.8c1,1.1,2.7,1.1,3.8,0.1c0.8-0.7,1.5-1.4,2.3-2c1.5-1.2,3.3-2.5,4.7-3.2
					c4-2.2,7.8-2.8,11.3-1.8c3,0.8,3.4,3.6,2.1,5.1c-1.5,1.7-4.8,2.3-7.6,0.4l-5.8-3.7v0c-1.4,0.7-3.1,2-4.7,3.2l0,0
					c0.2,0.3,0.4,0.5,0.8,0.7C92.6,86.6,94.5,87.9,97,89.3z"/>
				<g>
					<polygon class="st4" points="82.1,82.9 79.8,76.8 110.9,65.1 113.2,71.2 					"/>
					<path class="st4" d="M79.8,76.8c-0.2,0-6.4,5.9-6.4,5.9l8.7,0.1L79.8,76.8z"/>
					<polygon class="st3" points="82.1,82.9 79.8,76.8 110.9,65.1 113.2,71.2 					"/>
					
						<rect x="110.3" y="66" transform="matrix(0.3579 0.9338 -0.9338 0.3579 136.0154 -62.6209)" class="st0" width="6.5" height="3.2"/>
					
						<rect x="110.3" y="66" transform="matrix(0.3579 0.9338 -0.9338 0.3579 136.0154 -62.6209)" class="st3" width="6.5" height="3.2"/>
					<path class="st4" d="M118.5,69.2c1.7-0.6,2.5-2.5,1.9-4.2c-0.6-1.7-2.5-2.5-4.2-1.9l-2.3,0.9l2.3,6L118.5,69.2z"/>
					<path class="st3" d="M118.5,69.2c1.7-0.6,2.5-2.5,1.9-4.2c-0.6-1.7-2.5-2.5-4.2-1.9l-2.3,0.9l2.3,6L118.5,69.2z"/>
					<line class="st3" x1="73.4" y1="82.8" x2="71.9" y2="83.3"/>
					<path class="st3" d="M79.8,76.8c-0.2,0-6.4,5.9-6.4,5.9l8.7,0.1L79.8,76.8z"/>
				</g>
			</g>
			<g>
				<path class="st0" d="M106.1,100.4l6.3,8.3c0.3,0.4,1,0.5,1.4,0.2l15-11.5c0.4-0.3,0.5-1,0.2-1.4l-6.3-8.3
					c-0.3-0.4-1-0.5-1.4-0.2l-15,11.5C105.9,99.3,105.8,100,106.1,100.4z"/>
				<path class="st5" d="M106.1,100.4l6.3,8.3c0.3,0.4,1,0.5,1.4,0.2l15-11.5c0.4-0.3,0.5-1,0.2-1.4l-6.3-8.3
					c-0.3-0.4-1-0.5-1.4-0.2l-15,11.5C105.9,99.3,105.8,100,106.1,100.4z"/>
				<path class="st2" d="M106.6,98.8l-1.8-2.4c-0.3-0.4-0.2-1.1,0.2-1.4l12.9-9.8c0.4-0.3,1.1-0.2,1.4,0.2l1.8,2.4L106.6,98.8z"/>
			</g>
			<g>
				<path class="st4" d="M100.5,76.6c-1.5,1.7-4.8,2.3-7.6,0.4L86,72.7c-1.3-0.8-2.9-0.4-3.7,0.8c-0.8,1.3-0.4,2.9,0.8,3.7
					c9.4,9.3,11.4,10.6,13.8,12"/>
				<path class="st3" d="M100.5,76.6c-1.5,1.7-4.8,2.3-7.6,0.4L86,72.7c-1.3-0.8-2.9-0.4-3.7,0.8c-0.8,1.3-0.4,2.9,0.8,3.7
					c9.4,9.3,11.4,10.6,13.8,12"/>
				<path class="st3" d="M100.5,76.6c-1.5,1.7-4.8,2.3-7.6,0.4L86,72.7c-1.3-0.8-2.9-0.4-3.7,0.8c-0.8,1.3-0.4,2.9,0.8,3.7
					c9.4,9.3,11.4,10.6,13.8,12"/>
			</g>
		</g>
	</g>
	<path class="st2" d="M115.3,20.3l2.3,6.8c0.3,0.8-0.2,1.7-1,2l-15.1,5c-0.8,0.3-1.7-0.2-2-1l-2.8-8.3c-0.3-0.8,0.2-1.7,1-2
		l13.6-4.5C113,17.7,114.8,18.6,115.3,20.3z"/>
	<path class="st0" d="M108.3,19.3l3.8,11.3l-10.6,3.5c-0.8,0.3-1.7-0.2-2-1l-2.8-8.3c-0.3-0.8,0.2-1.7,1-2L108.3,19.3z"/>
	<path class="st3" d="M108.3,19.3l3.8,11.3l-10.6,3.5c-0.8,0.3-1.7-0.2-2-1l-2.8-8.3c-0.3-0.8,0.2-1.7,1-2L108.3,19.3z"/>
</g>
</svg>
